PathFileType	4	(X/Y/Z)	59_1_22_p0_0-160_filt_butterworth.trc
DataRate	CameraRate	NumFrames	NumMarkers	Units	OrigDataRate	OrigDataStartFrame	OrigNumFrames
60.0	60.0	5	27	m	60.0	80	160
Frame#	Time	RHip			RKnee			RAnkle			RBigToe			RSmallToe			RHeel			LHip			LKnee			LAnkle			LBigToe			LSmallToe			LHeel			Neck			Head			Nose			RShoulder			RElbow			RWrist			RThumb			RIndex			RPinky			LShoulder			LElbow			LWrist			LThumb			LIndex			LPinky			
		X1	Y1	Z1	X2	Y2	Z2	X3	Y3	Z3	X4	Y4	Z4	X5	Y5	Z5	X6	Y6	Z6	X7	Y7	Z7	X8	Y8	Z8	X9	Y9	Z9	X10	Y10	Z10	X11	Y11	Z11	X12	Y12	Z12	X13	Y13	Z13	X14	Y14	Z14	X15	Y15	Z15	X16	Y16	Z16	X17	Y17	Z17	X18	Y18	Z18	X19	Y19	Z19	X20	Y20	Z20	X21	Y21	Z21	X22	Y22	Z22	X23	Y23	Z23	X24	Y24	Z24	X25	Y25	Z25	X26	Y26	Z26	X27	Y27	Z27	
80	1.3333333333333333	0.3124607451856653	0.39834024473651963	0.9784677957753233	0.29123011235366125	0.5403712650063884	1.4420289380947924	0.28903219254527646	0.7329030861122121	1.8968016846720726	0.275409994332221	0.5366852675030577	1.9317528168698277	0.33853998863829815	0.5720596154022255	1.9237907724351402	0.2824431248768227	0.8254698462444443	1.9612108042683871	0.09097796295080254	0.41523833162657114	0.9873601005897095	0.09971674458134222	0.598972009012854	1.4491146651451223	0.11500883744325884	0.7491059398128488	1.8830898429896403	0.13066211741966063	0.5494939615090167	1.9254667918025987	0.07189090297532832	0.5915599916531682	1.9178243184613755	0.14273659865514038	0.8108501907230967	1.9450130441250826	0.1925194511473059	0.29725711695152024	0.37239157663327693	0.17921494268919932	0.1957505837937383	0.12180209480332532	0.1754147817725739	0.15161243549922332	0.2666008823204495	0.3679614267555205	0.3667529815027155	0.4612126625051518	0.4073765365385601	0.3460582852476703	0.763726574206736	0.2817069632366699	0.285898937699544	1.012529796754771	0.1883439797669055	0.29123912201399654	1.087846760274053	0.192417142607692	0.3363694197806588	1.1231419217767542	0.21578507311908368	0.3419925283688547	1.137283118680196	0.030224882467341372	0.36312111179427975	0.48461092952941975	0.0224166151053989	0.3814675849189451	0.7906366018100888	0.1494100682746509	0.24776946365312058	0.990385834205014	0.2572766685002114	0.2613364146513724	1.0510531051699108	0.26261622604457846	0.2695353952966425	1.087580893588844	0.20586101536819446	0.32697703470469464	1.1326014629439007
81	1.35	0.3124397858247857	0.3983559391543515	0.9784389566438794	0.2910979708244534	0.5400412496716369	1.4420568356955714	0.2890273013464274	0.7328948064146539	1.8967937442707778	0.27548723828662525	0.5417288914545668	1.9327093472724828	0.33928755888231227	0.5744019230188512	1.924748484623747	0.28244236317237403	0.8254877421515738	1.9611689433826323	0.09095092783413253	0.4153189561875486	0.987378716855759	0.09958970902235284	0.59860812776642	1.447639181274039	0.11638016718740266	0.7497988988543669	1.8833021299436035	0.13085194438936773	0.5492986475403838	1.92458598102186	0.07090546737574036	0.5948862785147758	1.9182935545311457	0.14329353578308093	0.8089788883770705	1.9447738584309633	0.19251686849232022	0.29727277112675565	0.37238539870730364	0.17802316626165995	0.1959071001305087	0.12154274870698062	0.17553279872573824	0.1517226832051568	0.2666202073348083	0.3679816384357809	0.3666988079783048	0.46122133124118336	0.4073829787909112	0.34605645821803227	0.7637697997495594	0.28178998543297085	0.2859567681603378	1.0123991380746094	0.1879697232382513	0.29139627417286074	1.0881785123272665	0.19174437790942894	0.337309064583444	1.12212401877738	0.2156866577914467	0.34170004985222363	1.1365950400299014	0.03020280437412112	0.36318098697540135	0.48346851504220967	0.022397571539009103	0.3814249778298565	0.7906217731052686	0.14953301134206576	0.24816774628096286	0.9916441718454562	0.25718401622835446	0.26164347955951905	1.0520460002889813	0.2626539885090796	0.2696466589905002	1.0875825915405057	0.20549945327836344	0.32846040669446064	1.133052904392805
82	1.3666666666666667	0.3123556315916609	0.3983572051412364	0.9783897002966487	0.2911135303736985	0.5405456551952057	1.4426850332456587	0.28902007963271814	0.7328785466375757	1.8967732720230353	0.2758177960912569	0.5475104519604888	1.934555471665056	0.34043433096847114	0.5777394287360058	1.927196550982988	0.28243577127875275	0.825467264957536	1.9611168026743533	0.09091897662619101	0.4154244355346563	0.9873674245022426	0.09955813502306696	0.5985592592492863	1.4471719718775504	0.11819872560365424	0.7501844828424679	1.883413786170228	0.13102052889408955	0.5492842047608082	1.9233436466198315	0.06961401267822702	0.599265131556567	1.9189073168794053	0.14394996200140242	0.806619341833133	1.944598009272279	0.1921079550188387	0.29854556027932533	0.3722973666785343	0.17710547544545702	0.1958250944608039	0.12105628928544199	0.17555678635284858	0.15166623118139436	0.2667204423963091	0.3670881929045956	0.36792973280983465	0.4611652558816555	0.4074041778267609	0.34603325603182133	0.7637916216353925	0.2817725132471173	0.2859490325475712	1.0122078380073516	0.18823579073232624	0.29180974735896925	1.0879528688369788	0.1920363340335837	0.3370934976757959	1.121224749003358	0.21559099008799587	0.3412368080840403	1.1346215381272808	0.030173885552590613	0.36329357695046294	0.48251816752621013	0.022388337550187	0.38139956299190086	0.7906043714712221	0.1494111923449755	0.24857713040999804	0.9926193905188838	0.2572508410290837	0.2617918064918116	1.0524142194885122	0.2627145950815073	0.26972808728806175	1.0876444367381268	0.20505547647409023	0.3284277522243676	1.1333460913355888
83	1.3833333333333333	0.31222676229857377	0.3983648586374479	0.9783509707361708	0.2915281294666324	0.5425971970096629	1.4444332625853085	0.28901176876459245	0.732894957338192	1.8967515225932003	0.27713518535244797	0.554180979190646	1.9374771662740893	0.3422979212764504	0.5814268701330254	1.9299312993703048	0.2824234193794515	0.8254434990258872	1.9610715771214615	0.09089669668280569	0.4154606670008216	0.9873611650321282	0.09963702261132137	0.5987404435797019	1.4479945099726643	0.11947900509277022	0.7502870341943184	1.8834629155843423	0.13111722654778818	0.549611626825157	1.9216760577787084	0.06863210306221325	0.6025972798629755	1.9193872855139575	0.1438290428517629	0.8068081883779017	1.9452159250952894	0.19106300730806938	0.3017575243736898	0.37208425609825596	0.17671844372734272	0.1953756199869475	0.12052379834054873	0.17550431318676532	0.15144206999340112	0.26677889999154536	0.36501174087406124	0.3712370333968815	0.4610128854736135	0.40743253036351634	0.345997825011644	0.7638068967816352	0.2813199830643306	0.285696572846465	1.0121349752615523	0.18951002480199752	0.2928489840477985	1.0881653051604896	0.19350808026071817	0.3367751241178114	1.1221266827890166	0.2155945772608591	0.3408348537644822	1.1325360022454902	0.03013785182295273	0.3634477061216768	0.48211634352176325	0.022392415338629634	0.38139391065609574	0.7905946216956916	0.1488233337927042	0.24884960620771313	0.9933419010330169	0.2574678812502591	0.26178537881265657	1.0523695305172474	0.2628815247121361	0.26980841676189865	1.0880932929157592	0.2040924156531445	0.328145844488718	1.134946564005532
84	1.4	0.3122128029671326	0.39842408473693053	0.9783895825844431	0.2927122126981295	0.5468309051769092	1.4470468273046526	0.289009723341962	0.7329663841394986	1.8967427367449514	0.2793430815007562	0.5604143379208818	1.9405133354293456	0.34421521548251166	0.5839748779660886	1.9316517112268747	0.28241112767488236	0.8254568140205149	1.9610476397681902	0.09089024520419339	0.41540356764195085	0.9873625388070228	0.0998550136677542	0.5991946731412783	1.4500648197834758	0.1195861070369632	0.7501981857031017	1.8834726234005186	0.13119282061591545	0.5500919548997334	1.9197118344913209	0.06822243096757913	0.6039708780825939	1.9196154791392734	0.1426599666461316	0.8108040815713525	1.947060930609001	0.1896812973081166	0.3059925986102876	0.37181552007556246	0.17667076702437795	0.19484411003010327	0.12008941760308718	0.1755076022986408	0.15141280198173254	0.26676528493448387	0.3623312866405299	0.37570536361786017	0.46081547934695144	0.4074575064912117	0.34596572175575985	0.7638211977970344	0.2801988289981867	0.2850211100491865	1.012533807397999	0.1914123937399279	0.293401790953413	1.0898519651248302	0.19562725949772397	0.33599794200425515	1.125259086278025	0.21579070610794326	0.3406951445861747	1.1314475458160462	0.030108792785821136	0.36361664090358525	0.48209400848182016	0.022404566049687758	0.3814008240806033	0.790600404457037	0.14772356564397268	0.24906897982359774	0.9944625101739655	0.25774142980391057	0.26177150067068916	1.0521450561112655	0.2631822545355863	0.2700539433052558	1.0892033024862258	0.2028450191700042	0.3279851918864917	1.1382741200443323
